<?xml version="1.0" encoding="UTF-8" standalone="no"?><!-- Generator: Gravit.io --><svg xmlns="http://www.w3.org/2000/svg" xmlns:xlink="http://www.w3.org/1999/xlink" style="isolation:isolate" viewBox="0 0 750 600" width="750pt" height="600pt"><defs><clipPath id="_clipPath_wGVte6mY0vJVbQiht1c4EEADmDNzrzjW"><rect width="750" height="600"/></clipPath></defs><g clip-path="url(#_clipPath_wGVte6mY0vJVbQiht1c4EEADmDNzrzjW)"><clipPath id="_clipPath_xp2ZaVLeZ1DmakVCJ30j0JwK31YaHEkV"><rect x="16" y="31" width="734" height="551" transform="matrix(1,0,0,1,0,0)" fill="rgb(255,255,255)"/></clipPath><g clip-path="url(#_clipPath_xp2ZaVLeZ1DmakVCJ30j0JwK31YaHEkV)"><g><path d=" M 700.184 102.001 L 595.217 102.001 L 568.872 27.923 C 566.488 21.175 560.183 16.676 553.036 16.676 L 346.888 16.676 C 339.742 16.676 333.433 21.175 331.053 27.923 L 304.704 102.001 L 262.804 102.001 L 262.804 50.553 C 262.804 41.277 255.234 33.686 245.985 33.686 L 145.085 33.686 C 135.835 33.686 128.269 41.277 128.269 50.553 L 128.269 102.001 L 77.815 102.001 C 68.566 102.001 61 109.592 61 118.868 L 61 505.289 C 61 514.565 68.566 522.156 77.815 522.156 L 431.112 522.156 C 443.699 523.281 456.364 523.281 468.952 522.156 L 700.184 522.156 C 709.434 522.156 717 514.565 717 505.289 L 717 118.868 C 717 109.592 709.573 102.001 700.184 102.001 Z  M 358.798 50.553 L 541.123 50.553 L 573.496 141.641 C 537.617 115.355 494.321 101.22 449.891 101.298 C 403.786 101.298 361.043 116.337 326.286 141.641 L 358.798 50.553 L 358.798 50.553 Z  M 161.9 67.42 L 229.169 67.42 L 229.169 96.942 L 161.9 96.942 L 161.9 67.42 Z  M 178.719 488.422 L 94.635 488.422 L 94.635 135.735 L 178.719 135.735 L 178.719 488.422 Z  M 212.354 488.422 L 212.354 135.735 L 292.794 135.735 L 266.867 208.692 C 249.093 240.254 239.775 275.898 239.818 312.148 C 239.818 385.805 277.659 450.749 334.836 488.422 L 212.354 488.422 L 212.354 488.422 Z  M 450.03 489.265 C 352.632 489.265 273.314 409.842 273.314 312.009 C 273.314 214.312 352.494 134.754 450.03 134.754 C 547.57 134.754 626.749 214.173 626.749 312.009 C 626.61 409.842 547.428 489.265 450.03 489.265 Z  M 683.365 488.422 L 565.227 488.422 C 622.405 450.749 660.241 385.805 660.241 312.148 C 660.241 274.619 650.434 239.334 633.196 208.692 L 607.269 135.735 L 683.508 135.735 L 683.508 488.422 L 683.365 488.422 L 683.365 488.422 Z  M 450.03 168.631 C 371.131 168.631 307.087 233.011 307.087 312.009 C 307.087 391.007 371.273 455.388 450.03 455.388 C 528.79 455.388 592.976 391.007 592.976 312.009 C 592.976 233.011 528.79 168.631 450.03 168.631 L 450.03 168.631 Z  M 450.03 421.792 C 389.769 421.792 340.722 372.594 340.722 312.148 C 340.722 251.706 389.769 202.508 450.03 202.508 C 510.291 202.508 559.341 251.706 559.341 312.148 C 559.341 372.594 510.291 421.792 450.03 421.792 Z  M 450.03 259.297 C 421.024 259.297 397.477 282.909 397.477 312.009 C 397.477 341.105 421.024 364.721 450.03 364.721 C 479.04 364.721 502.583 341.105 502.583 312.009 C 502.583 283.052 478.901 259.297 450.03 259.297 Z  M 450.03 331.126 C 439.661 331.126 431.112 322.549 431.112 312.148 C 431.112 301.747 439.661 293.171 450.03 293.171 C 460.402 293.171 468.952 301.747 468.952 312.148 C 468.952 322.549 460.402 331.126 450.03 331.126 Z " fill="rgb(0,0,0)"/></g></g><text transform="matrix(1,0,0,1,120.059,570.703)" style="font-family:'.SF Compact Rounded';font-weight:400;font-size:48px;font-style:normal;font-variant-ligatures:none;fill:[Object GCMYKColor];stroke:none;">click here to upload image</text></g></svg>